<svg width="135" height="49" viewBox="0 0 135 49" fill="none" xmlns="http://www.w3.org/2000/svg">
<path d="M125.083 15.8C127.555 15.8 129.643 16.64 131.347 18.32C133.051 20 133.903 22.04 133.903 24.44C133.903 26.84 133.051 28.88 131.347 30.56C129.643 32.24 127.555 33.08 125.083 33.08H121.303V41H115.543V15.8H125.083ZM125.083 27.68C125.971 27.68 126.703 27.368 127.279 26.744C127.855 26.12 128.143 25.352 128.143 24.44C128.143 23.528 127.855 22.76 127.279 22.136C126.703 21.512 125.971 21.2 125.083 21.2H121.303V27.68H125.083Z" fill="#5C6CFC"/>
<path d="M19.2691 15.8V21.344H12.7891V41H7.02906V21.344H0.549064V15.8H19.2691ZM37.8175 41L36.5575 37.04H27.1975L25.9375 41H19.6375L28.2055 15.8H35.5495L44.1175 41H37.8175ZM28.9255 31.64H34.8295L31.8775 22.388L28.9255 31.64ZM56.3589 41.504C53.7909 41.504 51.6429 40.952 49.9149 39.848C48.2109 38.72 46.9989 37.196 46.2789 35.276L51.2469 32.396C52.2549 34.724 54.0189 35.888 56.5389 35.888C58.8189 35.888 59.9589 35.204 59.9589 33.836C59.9589 33.092 59.5869 32.516 58.8429 32.108C58.1229 31.676 56.7549 31.184 54.7389 30.632C53.6829 30.344 52.7589 30.02 51.9669 29.66C51.1749 29.3 50.3949 28.832 49.6269 28.256C48.8829 27.656 48.3069 26.912 47.8989 26.024C47.5149 25.136 47.3229 24.116 47.3229 22.964C47.3229 20.636 48.1509 18.776 49.8069 17.384C51.4869 15.992 53.4789 15.296 55.7829 15.296C57.8469 15.296 59.6709 15.788 61.2549 16.772C62.8389 17.732 64.0869 19.136 64.9989 20.984L60.1389 23.828C59.6829 22.868 59.1189 22.148 58.4469 21.668C57.7749 21.164 56.8869 20.912 55.7829 20.912C54.9189 20.912 54.2469 21.104 53.7669 21.488C53.3109 21.848 53.0829 22.292 53.0829 22.82C53.0829 23.444 53.3709 23.984 53.9469 24.44C54.5469 24.896 55.7709 25.4 57.6189 25.952C58.6269 26.264 59.4069 26.516 59.9589 26.708C60.5109 26.9 61.2069 27.224 62.0469 27.68C62.9109 28.112 63.5589 28.58 63.9909 29.084C64.4469 29.564 64.8429 30.212 65.1789 31.028C65.5389 31.82 65.7189 32.732 65.7189 33.764C65.7189 36.164 64.8549 38.06 63.1269 39.452C61.3989 40.82 59.1429 41.504 56.3589 41.504ZM90.5977 41H84.0457L75.9817 29.336V41H70.2217V15.8H75.9817V26.744L83.6857 15.8H90.2377L81.7417 28.076L90.5977 41Z" fill="#2D304E"/>
<path d="M111.081 39.164C109.257 40.724 106.929 41.504 104.097 41.504C101.265 41.504 98.9369 40.724 97.1129 39.164C95.2889 37.604 94.3769 35.504 94.3769 32.864V15.8H100.137V32.36C100.137 34.712 101.457 35.888 104.097 35.888C106.737 35.888 108.057 34.712 108.057 32.36V15.8H113.817V32.864C113.817 35.504 112.905 37.604 111.081 39.164Z" fill="#5C6CFC"/>
<path d="M97.25 0L105.261 9H89.2393L97.25 0Z" fill="#5C6CFC"/>
<rect x="94.4" y="5" width="5.75" height="17" fill="#5C6CFC"/>
</svg>
